<svg id="icon-mistral ai" viewBox="0 0 24 24" fill="none" xmlns="http://www.w3.org/2000/svg">
<path d="M16.3637 4H19.4546V7.19998H16.3637V4Z" fill="black"/>
<path d="M17.9091 4H21V7.19998H17.9091V4Z" fill="#F7D046"/>
<path d="M4 4H7.0909V7.19998H4V4ZM4 7.19998H7.0909V10.4H4V7.19998ZM4 10.4H7.0909V13.6H4V10.4ZM4 13.6H7.0909V16.8H4V13.6Z" fill="black"/>
<path d="M4 16.8H7.0909V20H4V16.8Z" fill="black"/>
<path d="M5.54539 4H8.63629V7.19998H5.54539V4Z" fill="#F7D046"/>
<path d="M17.9091 7.20001H21V10.4H17.9091V7.20001ZM5.54539 7.20001H8.63629V10.4H5.54539V7.20001Z" fill="#F2A73B"/>
<path d="M13.2727 7.20001H16.3636V10.4H13.2727V7.20001Z" fill="black"/>
<path d="M14.8183 7.20001H17.9092V10.4H14.8183V7.20001ZM8.63636 7.20001H11.7273V10.4H8.63636V7.20001Z" fill="#F2A73B"/>
<path d="M11.7273 10.4001H14.8182V13.6001H11.7273V10.4001ZM14.8182 10.4001H17.9092V13.6001H14.8182V10.4001ZM8.63636 10.4001H11.7273V13.6001H8.63636V10.4001Z" fill="#EE792F"/>
<path d="M10.1818 13.6H13.2727V16.8H10.1818V13.6Z" fill="black"/>
<path d="M11.7272 13.6H14.8181V16.8H11.7272V13.6Z" fill="#EB5829"/>
<path d="M17.9091 10.4001H21V13.6001H17.9091V10.4001ZM5.54539 10.4001H8.63629V13.6001H5.54539V10.4001Z" fill="#EE792F"/>
<path d="M16.3637 13.6H19.4546V16.8H16.3637V13.6Z" fill="black"/>
<path d="M17.9091 13.6H21V16.8H17.9091V13.6Z" fill="#EB5829"/>
<path d="M16.3637 16.8H19.4546V20H16.3637V16.8Z" fill="black"/>
<path d="M5.54539 13.6H8.63629V16.8H5.54539V13.6Z" fill="#EB5829"/>
<path d="M17.9091 16.8H21V20H17.9091V16.8ZM5.54539 16.8H8.63629V20H5.54539V16.8Z" fill="#EA3326"/>
</svg>